# xmcd CD database file
#
# Track frame offsets:
#	150
#	5938
#	39436
#	57905
#	80253
#	99760
#	122993
#	143726
#	164103
#	193369
#	207977
#	229302
#	244530
#	268007
#
# Disc length: 3703 seconds
#
# Revision: 1
# Processed by: cddbd v1.5.2PL0 Copyright (c) Steve Scherf et al.
# Submitted via: CDex 1.51
#
DISCID=c90e750e
DTITLE=Peter Rühmkorf - Jazz und Lyrik CD 2
DYEAR=2009
DGENRE=Jazz
TTITLE0=Hochseil
TTITLE1=Tagebuch
TTITLE2=Ein zweiter Weg ums Gehirn rum
TTITLE3=Tagelied
TTITLE4=O 1. Klasse Einsamkeit
TTITLE5=Phönix 1
TTITLE6=Phönix 2
TTITLE7=Phönix 3
TTITLE8=Ich butter meinen Toast
TTITLE9=Bleib erschütterbar
TTITLE10=Selbstportrait
TTITLE11=Das war ich und weiss nicht
TTITLE12=Paradise regained
TTITLE13=Allein ist nicht genug
EXTD=YEAR: 2009
EXTT0=
EXTT1=
EXTT2=
EXTT3=
EXTT4=
EXTT5=
EXTT6=
EXTT7=
EXTT8=
EXTT9=
EXTT10=
EXTT11=
EXTT12=
EXTT13=
PLAYORDER=
